<mxfile host="Electron" agent="Mozilla/5.0 (Macintosh; Intel Mac OS X 10_15_7) AppleWebKit/537.36 (KHTML, like Gecko) draw.io/28.0.6 Chrome/138.0.7204.100 Electron/37.2.3 Safari/537.36" version="28.0.6">
  <diagram name="Pagina-1" id="yxB7POxRSXSa77u5hzhX">
    <mxGraphModel dx="1548" dy="1105" grid="1" gridSize="10" guides="1" tooltips="1" connect="1" arrows="1" fold="1" page="1" pageScale="1" pageWidth="827" pageHeight="1169" math="0" shadow="0">
      <root>
        <mxCell id="0" />
        <mxCell id="1" parent="0" />
        <mxCell id="iP1rD9-i1NodGPkTH8sG-1" value="&lt;font style=&quot;font-size: 36px;&quot;&gt;High Level Architecture&lt;/font&gt;" style="text;html=1;align=center;verticalAlign=middle;whiteSpace=wrap;rounded=0;" parent="1" vertex="1">
          <mxGeometry x="-10" y="30" width="460" height="60" as="geometry" />
        </mxCell>
        <mxCell id="iP1rD9-i1NodGPkTH8sG-2" value="" style="rounded=0;whiteSpace=wrap;html=1;fillColor=none;strokeColor=#757575;dashed=1;dashPattern=1 1;movable=0;resizable=0;rotatable=0;deletable=0;editable=0;locked=1;connectable=0;" parent="1" vertex="1">
          <mxGeometry x="60" y="160" width="140" height="380" as="geometry" />
        </mxCell>
        <mxCell id="iP1rD9-i1NodGPkTH8sG-3" value="&lt;b&gt;&lt;font style=&quot;font-size: 18px;&quot;&gt;Sources&lt;/font&gt;&lt;/b&gt;" style="rounded=0;whiteSpace=wrap;html=1;strokeColor=none;" parent="1" vertex="1">
          <mxGeometry x="80" y="146" width="100" height="30" as="geometry" />
        </mxCell>
        <mxCell id="iP1rD9-i1NodGPkTH8sG-4" value="" style="rounded=0;whiteSpace=wrap;html=1;fillColor=none;strokeColor=#757575;dashed=1;dashPattern=1 1;movable=0;resizable=0;rotatable=0;deletable=0;editable=0;locked=1;connectable=0;" parent="1" vertex="1">
          <mxGeometry x="240" y="160" width="330" height="380" as="geometry" />
        </mxCell>
        <mxCell id="iP1rD9-i1NodGPkTH8sG-5" value="&lt;span style=&quot;font-size: 18px;&quot;&gt;&lt;b&gt;Data Warehaouse&lt;/b&gt;&lt;/span&gt;" style="rounded=0;whiteSpace=wrap;html=1;strokeColor=none;" parent="1" vertex="1">
          <mxGeometry x="300" y="146" width="200" height="30" as="geometry" />
        </mxCell>
        <mxCell id="iP1rD9-i1NodGPkTH8sG-6" value="" style="rounded=0;whiteSpace=wrap;html=1;fillColor=none;strokeColor=#757575;dashed=1;dashPattern=1 1;movable=0;resizable=0;rotatable=0;deletable=0;editable=0;locked=1;connectable=0;" parent="1" vertex="1">
          <mxGeometry x="600" y="160" width="140" height="380" as="geometry" />
        </mxCell>
        <mxCell id="iP1rD9-i1NodGPkTH8sG-7" value="&lt;b&gt;&lt;font style=&quot;font-size: 18px;&quot;&gt;Consume&lt;/font&gt;&lt;/b&gt;" style="rounded=0;whiteSpace=wrap;html=1;strokeColor=none;" parent="1" vertex="1">
          <mxGeometry x="620" y="146" width="100" height="30" as="geometry" />
        </mxCell>
        <mxCell id="iP1rD9-i1NodGPkTH8sG-8" value="Bronze Layer" style="rounded=0;whiteSpace=wrap;html=1;fillColor=#ffe6cc;strokeColor=#d79b00;" parent="1" vertex="1">
          <mxGeometry x="250" y="200" width="90" height="20" as="geometry" />
        </mxCell>
        <mxCell id="iP1rD9-i1NodGPkTH8sG-9" value="Silver Layer" style="rounded=0;whiteSpace=wrap;html=1;fillColor=#f5f5f5;fontColor=#333333;strokeColor=#666666;" parent="1" vertex="1">
          <mxGeometry x="360" y="200" width="90" height="20" as="geometry" />
        </mxCell>
        <mxCell id="iP1rD9-i1NodGPkTH8sG-10" value="Gold Layer" style="rounded=0;whiteSpace=wrap;html=1;fillColor=#fff2cc;strokeColor=#d6b656;" parent="1" vertex="1">
          <mxGeometry x="470" y="200" width="90" height="20" as="geometry" />
        </mxCell>
        <mxCell id="iP1rD9-i1NodGPkTH8sG-12" value="" style="rounded=0;whiteSpace=wrap;html=1;fillColor=none;dashed=1;strokeColor=#FFB570;movable=1;resizable=1;rotatable=1;deletable=1;editable=1;locked=0;connectable=1;" parent="1" vertex="1">
          <mxGeometry x="250" y="224" width="90" height="306" as="geometry" />
        </mxCell>
        <mxCell id="iP1rD9-i1NodGPkTH8sG-13" value="" style="rounded=0;whiteSpace=wrap;html=1;fillColor=none;dashed=1;strokeColor=#CCCCCC;movable=1;resizable=1;rotatable=1;deletable=1;editable=1;locked=0;connectable=1;" parent="1" vertex="1">
          <mxGeometry x="360" y="224" width="90" height="306" as="geometry" />
        </mxCell>
        <mxCell id="iP1rD9-i1NodGPkTH8sG-14" value="" style="rounded=0;whiteSpace=wrap;html=1;fillColor=none;dashed=1;strokeColor=#FFD966;movable=1;resizable=1;rotatable=1;deletable=1;editable=1;locked=0;connectable=1;" parent="1" vertex="1">
          <mxGeometry x="470" y="224" width="90" height="306" as="geometry" />
        </mxCell>
        <mxCell id="zoK-zIcGXNDVeWaxAw9_-3" value="CRM" style="image;aspect=fixed;html=1;points=[];align=center;fontSize=12;image=img/lib/azure2/general/Folder_Blank.svg;" vertex="1" parent="1">
          <mxGeometry x="105" y="210" width="45" height="36.52" as="geometry" />
        </mxCell>
        <mxCell id="zoK-zIcGXNDVeWaxAw9_-5" value="" style="image;aspect=fixed;html=1;points=[];align=center;fontSize=12;image=img/lib/azure2/general/File.svg;" vertex="1" parent="1">
          <mxGeometry x="137" y="225.52" width="20" height="24.65" as="geometry" />
        </mxCell>
        <mxCell id="zoK-zIcGXNDVeWaxAw9_-6" value="ERP" style="image;aspect=fixed;html=1;points=[];align=center;fontSize=12;image=img/lib/azure2/general/Folder_Blank.svg;" vertex="1" parent="1">
          <mxGeometry x="105" y="310" width="45" height="36.52" as="geometry" />
        </mxCell>
        <mxCell id="zoK-zIcGXNDVeWaxAw9_-7" value="" style="image;aspect=fixed;html=1;points=[];align=center;fontSize=12;image=img/lib/azure2/general/File.svg;" vertex="1" parent="1">
          <mxGeometry x="137" y="326.16" width="20" height="24.65" as="geometry" />
        </mxCell>
        <mxCell id="zoK-zIcGXNDVeWaxAw9_-8" value="" style="endArrow=none;html=1;rounded=0;" edge="1" parent="1">
          <mxGeometry width="50" height="50" relative="1" as="geometry">
            <mxPoint x="80" y="400" as="sourcePoint" />
            <mxPoint x="180" y="400" as="targetPoint" />
          </mxGeometry>
        </mxCell>
        <mxCell id="zoK-zIcGXNDVeWaxAw9_-9" value="&lt;font style=&quot;font-size: 8px;&quot;&gt;&lt;b style=&quot;&quot;&gt;Objective Type: &lt;/b&gt;CSV files&lt;/font&gt;" style="text;html=1;align=center;verticalAlign=middle;whiteSpace=wrap;rounded=0;" vertex="1" parent="1">
          <mxGeometry x="70" y="410" width="120" height="30" as="geometry" />
        </mxCell>
        <mxCell id="zoK-zIcGXNDVeWaxAw9_-10" value="&lt;font style=&quot;font-size: 8px;&quot;&gt;&lt;b style=&quot;&quot;&gt;Interface: &lt;/b&gt;files in folder&lt;/font&gt;" style="text;html=1;align=center;verticalAlign=middle;whiteSpace=wrap;rounded=0;" vertex="1" parent="1">
          <mxGeometry x="70" y="440" width="120" height="30" as="geometry" />
        </mxCell>
        <mxCell id="zoK-zIcGXNDVeWaxAw9_-11" value="&lt;font style=&quot;font-size: 10px;&quot;&gt;Raw Data&lt;/font&gt;" style="html=1;verticalLabelPosition=bottom;align=center;labelBackgroundColor=#ffffff;verticalAlign=top;strokeWidth=2;strokeColor=#d79b00;shadow=0;dashed=0;shape=mxgraph.ios7.icons.data;fillColor=#ffe6cc;" vertex="1" parent="1">
          <mxGeometry x="280" y="240" width="30" height="40" as="geometry" />
        </mxCell>
        <mxCell id="zoK-zIcGXNDVeWaxAw9_-12" value="&lt;font style=&quot;font-size: 10px;&quot;&gt;Cleaned, &lt;br&gt;Standardized Data&lt;/font&gt;" style="html=1;verticalLabelPosition=bottom;align=center;labelBackgroundColor=#ffffff;verticalAlign=top;strokeWidth=2;strokeColor=#666666;shadow=0;dashed=0;shape=mxgraph.ios7.icons.data;fillColor=#f5f5f5;fontColor=#333333;" vertex="1" parent="1">
          <mxGeometry x="390" y="240" width="32" height="40" as="geometry" />
        </mxCell>
        <mxCell id="zoK-zIcGXNDVeWaxAw9_-13" value="&lt;font style=&quot;font-size: 10px;&quot;&gt;Business-Ready&lt;br&gt;Data&lt;/font&gt;" style="html=1;verticalLabelPosition=bottom;align=center;labelBackgroundColor=#ffffff;verticalAlign=top;strokeWidth=2;strokeColor=#d6b656;shadow=0;dashed=0;shape=mxgraph.ios7.icons.data;fillColor=#fff2cc;" vertex="1" parent="1">
          <mxGeometry x="500" y="240" width="34" height="40" as="geometry" />
        </mxCell>
        <mxCell id="zoK-zIcGXNDVeWaxAw9_-15" value="" style="html=1;shadow=0;dashed=0;align=center;verticalAlign=middle;shape=mxgraph.arrows2.arrow;dy=0.61;dx=26.69;notch=0;" vertex="1" parent="1">
          <mxGeometry x="190" y="320.81" width="70" height="30" as="geometry" />
        </mxCell>
        <mxCell id="zoK-zIcGXNDVeWaxAw9_-16" value="" style="html=1;shadow=0;dashed=0;align=center;verticalAlign=middle;shape=mxgraph.arrows2.arrow;dy=0.61;dx=26.69;notch=0;" vertex="1" parent="1">
          <mxGeometry x="320" y="320.81" width="70" height="30" as="geometry" />
        </mxCell>
        <mxCell id="zoK-zIcGXNDVeWaxAw9_-17" value="" style="html=1;shadow=0;dashed=0;align=center;verticalAlign=middle;shape=mxgraph.arrows2.arrow;dy=0.61;dx=26.69;notch=0;" vertex="1" parent="1">
          <mxGeometry x="430" y="323.49" width="70" height="30" as="geometry" />
        </mxCell>
        <mxCell id="zoK-zIcGXNDVeWaxAw9_-18" value="" style="html=1;shadow=0;dashed=0;align=center;verticalAlign=middle;shape=mxgraph.arrows2.arrow;dy=0.61;dx=26.69;notch=0;" vertex="1" parent="1">
          <mxGeometry x="550" y="323.49" width="70" height="30" as="geometry" />
        </mxCell>
        <mxCell id="zoK-zIcGXNDVeWaxAw9_-19" value="" style="endArrow=none;html=1;rounded=0;fillColor=#ffe6cc;strokeColor=#d79b00;" edge="1" parent="1">
          <mxGeometry width="50" height="50" relative="1" as="geometry">
            <mxPoint x="255" y="350.81" as="sourcePoint" />
            <mxPoint x="335" y="350.81" as="targetPoint" />
          </mxGeometry>
        </mxCell>
        <mxCell id="zoK-zIcGXNDVeWaxAw9_-20" value="&lt;font style=&quot;font-size: 8px;&quot;&gt;&lt;b style=&quot;&quot;&gt;Objective Type: &lt;/b&gt;Tabels&lt;/font&gt;" style="text;html=1;align=left;verticalAlign=middle;whiteSpace=wrap;rounded=0;" vertex="1" parent="1">
          <mxGeometry x="250" y="353.49" width="90" height="30" as="geometry" />
        </mxCell>
        <mxCell id="zoK-zIcGXNDVeWaxAw9_-21" value="&lt;div style=&quot;line-height: 100%;&quot;&gt;&lt;div&gt;&lt;b style=&quot;background-color: transparent; color: light-dark(rgb(0, 0, 0), rgb(255, 255, 255));&quot;&gt;&lt;font style=&quot;font-size: 8px; line-height: 100%;&quot;&gt;Load:&lt;/font&gt;&lt;/b&gt;&lt;/div&gt;&lt;div&gt;&lt;span style=&quot;font-size: 8px; background-color: transparent; color: light-dark(rgb(0, 0, 0), rgb(255, 255, 255)); line-height: 100%;&quot;&gt;- Batch Processing&lt;/span&gt;&lt;br&gt;&lt;span style=&quot;font-size: 8px; background-color: transparent; color: light-dark(rgb(0, 0, 0), rgb(255, 255, 255)); line-height: 100%;&quot;&gt;- Full Load&lt;/span&gt;&lt;br&gt;&lt;span style=&quot;font-size: 8px; background-color: transparent; color: light-dark(rgb(0, 0, 0), rgb(255, 255, 255)); line-height: 100%;&quot;&gt;- Truncate &amp;amp; Insert&lt;/span&gt;&lt;/div&gt;&lt;/div&gt;" style="text;html=1;align=left;verticalAlign=middle;whiteSpace=wrap;rounded=0;" vertex="1" parent="1">
          <mxGeometry x="250" y="378.26" width="90" height="50" as="geometry" />
        </mxCell>
        <mxCell id="zoK-zIcGXNDVeWaxAw9_-22" value="&lt;div style=&quot;text-align: left;&quot;&gt;&lt;font style=&quot;font-size: 8px;&quot;&gt;&lt;b style=&quot;background-color: transparent; color: light-dark(rgb(0, 0, 0), rgb(255, 255, 255));&quot;&gt;Data Model: &lt;/b&gt;&lt;span style=&quot;background-color: transparent; color: light-dark(rgb(0, 0, 0), rgb(255, 255, 255));&quot;&gt;None (as-is)&lt;/span&gt;&lt;/font&gt;&lt;/div&gt;" style="text;html=1;align=center;verticalAlign=middle;whiteSpace=wrap;rounded=0;" vertex="1" parent="1">
          <mxGeometry x="245" y="500" width="100" height="40" as="geometry" />
        </mxCell>
        <mxCell id="zoK-zIcGXNDVeWaxAw9_-23" value="&lt;div style=&quot;&quot;&gt;&lt;b style=&quot;&quot;&gt;&lt;font style=&quot;font-size: 8px;&quot;&gt;No Transformations&lt;/font&gt;&lt;/b&gt;&lt;/div&gt;" style="text;html=1;align=left;verticalAlign=middle;whiteSpace=wrap;rounded=0;" vertex="1" parent="1">
          <mxGeometry x="250" y="428.26" width="90" height="30" as="geometry" />
        </mxCell>
        <mxCell id="zoK-zIcGXNDVeWaxAw9_-25" value="&lt;font style=&quot;font-size: 8px;&quot;&gt;&lt;b style=&quot;&quot;&gt;Objective Type: &lt;/b&gt;Tabels&lt;/font&gt;" style="text;html=1;align=left;verticalAlign=middle;whiteSpace=wrap;rounded=0;" vertex="1" parent="1">
          <mxGeometry x="360" y="351.75" width="90" height="30" as="geometry" />
        </mxCell>
        <mxCell id="zoK-zIcGXNDVeWaxAw9_-26" value="&lt;div style=&quot;line-height: 100%;&quot;&gt;&lt;div&gt;&lt;b style=&quot;background-color: transparent; color: light-dark(rgb(0, 0, 0), rgb(255, 255, 255));&quot;&gt;&lt;font style=&quot;font-size: 8px; line-height: 100%;&quot;&gt;Load:&lt;/font&gt;&lt;/b&gt;&lt;/div&gt;&lt;div&gt;&lt;span style=&quot;font-size: 8px; background-color: transparent; color: light-dark(rgb(0, 0, 0), rgb(255, 255, 255)); line-height: 100%;&quot;&gt;- Batch Processing&lt;/span&gt;&lt;br&gt;&lt;span style=&quot;font-size: 8px; background-color: transparent; color: light-dark(rgb(0, 0, 0), rgb(255, 255, 255)); line-height: 100%;&quot;&gt;- Full Load&lt;/span&gt;&lt;br&gt;&lt;span style=&quot;font-size: 8px; background-color: transparent; color: light-dark(rgb(0, 0, 0), rgb(255, 255, 255)); line-height: 100%;&quot;&gt;- Truncate &amp;amp; Insert&lt;/span&gt;&lt;/div&gt;&lt;/div&gt;" style="text;html=1;align=left;verticalAlign=middle;whiteSpace=wrap;rounded=0;" vertex="1" parent="1">
          <mxGeometry x="360" y="378.26" width="90" height="50" as="geometry" />
        </mxCell>
        <mxCell id="zoK-zIcGXNDVeWaxAw9_-27" value="&lt;div style=&quot;text-align: left;&quot;&gt;&lt;font style=&quot;font-size: 8px;&quot;&gt;&lt;b style=&quot;background-color: transparent; color: light-dark(rgb(0, 0, 0), rgb(255, 255, 255));&quot;&gt;Data Model: &lt;/b&gt;&lt;span style=&quot;background-color: transparent; color: light-dark(rgb(0, 0, 0), rgb(255, 255, 255));&quot;&gt;None (as-is)&lt;/span&gt;&lt;/font&gt;&lt;/div&gt;" style="text;html=1;align=center;verticalAlign=middle;whiteSpace=wrap;rounded=0;" vertex="1" parent="1">
          <mxGeometry x="355" y="510" width="100" height="20" as="geometry" />
        </mxCell>
        <mxCell id="zoK-zIcGXNDVeWaxAw9_-28" value="&lt;div style=&quot;line-height: 100%;&quot;&gt;&lt;div&gt;&lt;b&gt;&lt;font style=&quot;font-size: 8px; line-height: 100%;&quot;&gt;Trasformations:&lt;/font&gt;&lt;/b&gt;&lt;/div&gt;&lt;div&gt;&lt;span style=&quot;font-size: 8px; line-height: 100%;&quot;&gt;- Data Cleansing&lt;/span&gt;&lt;/div&gt;&lt;div&gt;&lt;span style=&quot;font-size: 8px; line-height: 100%;&quot;&gt;- Data Standardization&lt;/span&gt;&lt;/div&gt;&lt;div&gt;&lt;span style=&quot;font-size: 8px; line-height: 100%;&quot;&gt;- Data Normalization&lt;/span&gt;&lt;/div&gt;&lt;div&gt;&lt;span style=&quot;font-size: 8px; line-height: 100%;&quot;&gt;- Derived Columns&lt;/span&gt;&lt;/div&gt;&lt;div&gt;&lt;span style=&quot;font-size: 8px; line-height: 100%;&quot;&gt;- Data Enrichment&lt;/span&gt;&lt;/div&gt;&lt;/div&gt;" style="text;html=1;align=left;verticalAlign=middle;whiteSpace=wrap;rounded=0;" vertex="1" parent="1">
          <mxGeometry x="361" y="428.26" width="90" height="81.74" as="geometry" />
        </mxCell>
        <mxCell id="zoK-zIcGXNDVeWaxAw9_-29" value="" style="endArrow=none;html=1;rounded=0;fillColor=#f5f5f5;strokeColor=#666666;" edge="1" parent="1">
          <mxGeometry width="50" height="50" relative="1" as="geometry">
            <mxPoint x="370" y="351.75" as="sourcePoint" />
            <mxPoint x="450" y="351.75" as="targetPoint" />
          </mxGeometry>
        </mxCell>
        <mxCell id="zoK-zIcGXNDVeWaxAw9_-30" value="" style="endArrow=none;html=1;rounded=0;fillColor=#fff2cc;strokeColor=#d6b656;" edge="1" parent="1">
          <mxGeometry width="50" height="50" relative="1" as="geometry">
            <mxPoint x="477" y="353.49" as="sourcePoint" />
            <mxPoint x="557" y="353.49" as="targetPoint" />
          </mxGeometry>
        </mxCell>
        <mxCell id="zoK-zIcGXNDVeWaxAw9_-31" value="&lt;div style=&quot;line-height: 100%;&quot;&gt;&lt;div&gt;&lt;span style=&quot;font-size: 8px;&quot;&gt;&lt;b&gt;No Load&lt;/b&gt;&lt;/span&gt;&lt;/div&gt;&lt;/div&gt;" style="text;html=1;align=left;verticalAlign=middle;whiteSpace=wrap;rounded=0;" vertex="1" parent="1">
          <mxGeometry x="472" y="378.26" width="90" height="50" as="geometry" />
        </mxCell>
        <mxCell id="zoK-zIcGXNDVeWaxAw9_-32" value="&lt;div style=&quot;line-height: 100%;&quot;&gt;&lt;div style=&quot;text-align: left;&quot;&gt;&lt;font style=&quot;font-size: 8px; line-height: 100%;&quot;&gt;&lt;b style=&quot;background-color: transparent; color: light-dark(rgb(0, 0, 0), rgb(255, 255, 255));&quot;&gt;Data Model:&amp;nbsp;&lt;/b&gt;&lt;/font&gt;&lt;/div&gt;&lt;div style=&quot;text-align: left;&quot;&gt;&lt;font style=&quot;font-size: 8px; line-height: 100%;&quot;&gt;&lt;span style=&quot;background-color: transparent; color: light-dark(rgb(0, 0, 0), rgb(255, 255, 255));&quot;&gt;- Star Schema&lt;/span&gt;&lt;/font&gt;&lt;/div&gt;&lt;div style=&quot;text-align: left;&quot;&gt;&lt;font style=&quot;font-size: 8px; line-height: 100%;&quot;&gt;&lt;span style=&quot;background-color: transparent; color: light-dark(rgb(0, 0, 0), rgb(255, 255, 255));&quot;&gt;- Flat Table&lt;/span&gt;&lt;/font&gt;&lt;/div&gt;&lt;div style=&quot;text-align: left;&quot;&gt;&lt;font style=&quot;font-size: 8px; line-height: 100%;&quot;&gt;&lt;span style=&quot;background-color: transparent; color: light-dark(rgb(0, 0, 0), rgb(255, 255, 255));&quot;&gt;- Aggregated Table&lt;/span&gt;&lt;/font&gt;&lt;/div&gt;&lt;/div&gt;" style="text;html=1;align=center;verticalAlign=middle;whiteSpace=wrap;rounded=0;" vertex="1" parent="1">
          <mxGeometry x="462" y="490" width="100" height="20" as="geometry" />
        </mxCell>
        <mxCell id="zoK-zIcGXNDVeWaxAw9_-33" value="&lt;div style=&quot;line-height: 100%;&quot;&gt;&lt;div&gt;&lt;b&gt;&lt;font style=&quot;font-size: 8px; line-height: 100%;&quot;&gt;Trasformations:&lt;/font&gt;&lt;/b&gt;&lt;/div&gt;&lt;div&gt;&lt;span style=&quot;font-size: 8px;&quot;&gt;- Data Integrations&lt;/span&gt;&lt;/div&gt;&lt;div&gt;&lt;span style=&quot;font-size: 8px;&quot;&gt;- Aggregations&lt;/span&gt;&lt;/div&gt;&lt;div&gt;&lt;span style=&quot;font-size: 8px;&quot;&gt;- Business Logics&lt;/span&gt;&lt;/div&gt;&lt;/div&gt;" style="text;html=1;align=left;verticalAlign=middle;whiteSpace=wrap;rounded=0;" vertex="1" parent="1">
          <mxGeometry x="472" y="418.26" width="90" height="51.74" as="geometry" />
        </mxCell>
        <mxCell id="zoK-zIcGXNDVeWaxAw9_-34" value="&lt;font style=&quot;font-size: 8px;&quot;&gt;&lt;b style=&quot;&quot;&gt;Objective Type: &lt;/b&gt;Views&lt;/font&gt;" style="text;html=1;align=left;verticalAlign=middle;whiteSpace=wrap;rounded=0;" vertex="1" parent="1">
          <mxGeometry x="470" y="353.49" width="90" height="30" as="geometry" />
        </mxCell>
        <mxCell id="zoK-zIcGXNDVeWaxAw9_-35" value="" style="image;aspect=fixed;html=1;points=[];align=center;fontSize=12;image=img/lib/azure2/analytics/Power_BI_Embedded.svg;" vertex="1" parent="1">
          <mxGeometry x="630" y="220" width="30" height="40" as="geometry" />
        </mxCell>
        <mxCell id="zoK-zIcGXNDVeWaxAw9_-37" value="" style="shape=image;verticalLabelPosition=bottom;labelBackgroundColor=default;verticalAlign=top;aspect=fixed;imageAspect=0;image=https://cdn-icons-png.flaticon.com/128/6820/6820955.png;" vertex="1" parent="1">
          <mxGeometry x="670" y="232" width="28" height="28" as="geometry" />
        </mxCell>
        <mxCell id="zoK-zIcGXNDVeWaxAw9_-38" value="&lt;font style=&quot;font-size: 10px;&quot;&gt;BI &amp;amp; Reporting&lt;/font&gt;" style="text;html=1;align=center;verticalAlign=middle;whiteSpace=wrap;rounded=0;" vertex="1" parent="1">
          <mxGeometry x="630" y="260" width="60" height="30" as="geometry" />
        </mxCell>
        <mxCell id="zoK-zIcGXNDVeWaxAw9_-39" value="" style="image;aspect=fixed;html=1;points=[];align=center;fontSize=12;image=img/lib/azure2/general/Search.svg;" vertex="1" parent="1">
          <mxGeometry x="649.63" y="320.81" width="40.37" height="41" as="geometry" />
        </mxCell>
        <mxCell id="zoK-zIcGXNDVeWaxAw9_-40" value="&lt;font style=&quot;font-size: 10px;&quot;&gt;Ad-Hoc&lt;/font&gt;&lt;div&gt;&lt;font style=&quot;font-size: 10px;&quot;&gt;SQL Queries&lt;/font&gt;&lt;/div&gt;" style="text;html=1;align=center;verticalAlign=middle;whiteSpace=wrap;rounded=0;" vertex="1" parent="1">
          <mxGeometry x="630" y="370" width="60" height="30" as="geometry" />
        </mxCell>
        <mxCell id="zoK-zIcGXNDVeWaxAw9_-42" value="&lt;span style=&quot;font-size: 10px;&quot;&gt;Machine Learning&lt;/span&gt;" style="text;html=1;align=center;verticalAlign=middle;whiteSpace=wrap;rounded=0;" vertex="1" parent="1">
          <mxGeometry x="632" y="480" width="60" height="30" as="geometry" />
        </mxCell>
        <mxCell id="zoK-zIcGXNDVeWaxAw9_-43" value="" style="shape=image;verticalLabelPosition=bottom;labelBackgroundColor=default;verticalAlign=top;aspect=fixed;imageAspect=0;image=https://cdn-icons-png.flaticon.com/128/15113/15113435.png;" vertex="1" parent="1">
          <mxGeometry x="634" y="418.26" width="58" height="58" as="geometry" />
        </mxCell>
      </root>
    </mxGraphModel>
  </diagram>
</mxfile>
